<?xml version="1.0" standalone="no"?>
<!DOCTYPE svg PUBLIC "-//W3C//DTD SVG 20010904//EN"
 "http://www.w3.org/TR/2001/REC-SVG-20010904/DTD/svg10.dtd">
<svg version="1.0" xmlns="http://www.w3.org/2000/svg"
 width="474.000000pt" height="266.000000pt" viewBox="0 0 474.000000 266.000000"
 preserveAspectRatio="xMidYMid meet">

<g transform="translate(0.000000,266.000000) scale(0.100000,-0.100000)"
fill="#000000" stroke="none">
<path d="M3046 2315 c-12 -50 -57 -154 -84 -193 -22 -34 -65 -118 -66 -133 -1
-3 14 -23 33 -44 l34 -39 28 32 c41 46 46 75 18 113 -19 27 -36 89 -20 73 3
-3 10 12 16 33 6 21 15 38 20 38 17 0 18 -74 1 -91 -20 -20 -22 -41 -2 -25 21
17 26 -6 26 -115 0 -52 4 -94 8 -94 8 0 6 419 -2 460 -2 8 -6 2 -10 -15z"/>
<path d="M2771 2199 c1 -57 5 -162 9 -234 6 -102 7 -80 4 100 -3 126 -7 231
-9 234 -3 2 -4 -43 -4 -100z"/>
<path d="M3061 1604 c0 -11 3 -14 6 -6 3 7 2 16 -1 19 -3 4 -6 -2 -5 -13z"/>
<path d="M4243 1445 c4 -27 9 -75 13 -105 l6 -56 -41 -2 c-28 -2 -41 1 -41 10
0 9 -2 10 -8 2 -4 -6 -29 -11 -57 -10 -47 1 -50 3 -56 31 l-7 30 -1 -31 -1
-31 -162 -1 c-90 0 -168 4 -174 9 -6 4 -21 6 -35 3 -39 -9 -179 -11 -179 -2 0
4 -7 8 -15 8 -8 0 -15 -5 -15 -10 0 -7 -6 -7 -20 0 -17 9 -20 8 -20 -10 l0
-21 -22 20 c-11 11 -26 17 -32 13 -6 -4 -29 -7 -51 -8 -22 0 -51 -4 -64 -8
-34 -12 -81 -14 -87 -4 -3 5 -10 5 -16 2 -6 -4 -14 0 -19 7 -5 8 -21 13 -38
11 l-30 -3 -4 68 -3 68 -2 -67 c-2 -61 -4 -68 -23 -68 -11 0 -27 -7 -35 -15
-9 -8 -21 -15 -27 -14 -9 0 -8 2 1 6 20 8 14 20 -10 21 -13 0 -44 3 -70 6 -27
3 -50 1 -53 -5 -4 -5 -3 -8 2 -7 4 2 25 -8 46 -21 21 -12 44 -20 53 -17 8 3
12 2 9 -4 -3 -6 1 -10 9 -10 8 0 18 5 21 10 3 6 11 10 18 10 6 0 2 -7 -9 -15
-24 -18 -42 -19 -78 0 -15 8 -46 15 -67 15 l-39 0 -1 53 c-2 91 -17 112 -18
24 l-1 -78 -27 4 c-24 3 -28 9 -31 40 -2 25 -8 37 -18 37 -9 0 -12 -5 -8 -12
4 -7 7 -27 6 -45 -2 -20 2 -33 9 -33 8 0 7 -5 -2 -17 -10 -11 -10 -14 -1 -9 8
5 12 0 12 -14 0 -12 -4 -19 -9 -16 -5 3 -11 -4 -14 -15 -4 -16 -2 -19 10 -15
13 5 14 4 3 -9 -7 -8 -10 -22 -6 -30 4 -12 -4 -15 -39 -15 -25 0 -45 5 -45 10
0 6 9 10 20 10 11 0 20 5 20 11 0 5 5 7 11 4 7 -5 9 14 7 55 -3 55 -6 64 -26
71 -15 6 -21 5 -17 -1 3 -6 1 -10 -4 -10 -6 0 -11 7 -11 16 0 8 -4 12 -10 9
-5 -3 -10 -2 -10 3 0 6 8 13 17 16 15 6 15 8 3 16 -9 5 -19 5 -24 0 -4 -4 -15
-6 -23 -3 -12 5 -14 1 -8 -18 4 -16 3 -20 -3 -10 -7 9 -12 10 -16 2 -4 -6 -2
-11 3 -11 22 0 10 -20 -11 -21 -22 0 -22 -1 -3 -9 28 -12 47 -12 40 0 -3 5 -1
18 5 27 11 17 11 17 6 1 -3 -10 -1 -18 4 -18 5 0 7 -12 6 -27 -2 -16 -6 -27
-10 -25 -3 1 -11 2 -17 2 -5 0 -7 5 -4 10 3 6 1 10 -5 10 -16 0 -25 -31 -11
-39 16 -11 2 -41 -19 -41 -10 0 -24 8 -31 17 -8 9 -9 14 -4 11 11 -6 28 10 33
30 1 7 -4 12 -11 12 -7 0 -18 9 -25 20 -10 17 -10 20 5 21 12 1 10 4 -7 9 -25
8 -25 8 8 15 45 10 49 23 7 19 -36 -2 -48 11 -17 19 13 4 11 5 -5 6 -16 1 -23
-5 -23 -16 0 -15 -2 -15 -9 -4 -14 21 8 37 99 73 58 22 79 35 75 46 -3 7 -5
19 -5 26 0 7 -26 17 -64 24 -87 16 -87 16 -76 -13 11 -28 10 -29 -140 -85
-115 -43 -144 -57 -130 -62 9 -3 12 -30 11 -97 -1 -51 -4 -97 -7 -102 -3 -5
53 -9 125 -9 126 0 130 1 134 23 l4 22 2 -23 c0 -13 -6 -25 -16 -29 -10 -4
-21 -11 -25 -17 -6 -8 -8 -8 -8 0 0 14 -224 8 -228 -6 -2 -5 -8 -10 -13 -10
-6 0 -7 5 -4 10 3 5 2 10 -4 10 -5 0 -12 -6 -14 -12 -4 -10 -6 -10 -6 0 -1 9
-6 10 -20 2 -14 -7 -22 -7 -26 0 -4 6 -9 9 -13 6 -4 -2 -68 -6 -142 -10 -314
-15 -376 -19 -385 -24 -16 -10 -635 -10 -635 0 0 4 49 8 109 8 72 0 112 4 117
12 5 8 -2 9 -26 5 -18 -4 -72 -7 -121 -7 -72 0 -89 -3 -89 -15 0 -8 -8 -15
-17 -14 -11 0 -13 3 -5 6 6 2 12 8 12 12 0 6 -144 5 -228 -2 -17 -2 -32 1 -32
5 0 4 35 9 78 9 42 1 88 3 102 4 51 6 368 17 448 15 46 -1 89 3 95 8 7 5 49 9
94 9 50 0 89 5 97 12 11 9 20 9 35 2 34 -19 41 -13 41 38 0 46 -2 49 -22 45
l-23 -5 23 10 c32 15 27 31 -10 32 -18 1 -37 1 -42 0 -5 -1 -13 4 -17 11 -5 7
-9 8 -9 3 0 -6 -12 -11 -27 -12 -16 -1 -22 1 -15 4 9 4 10 8 2 18 -9 11 -6 13
14 11 15 -2 26 2 26 8 0 6 16 12 36 13 28 1 33 -1 25 -11 -8 -10 -7 -17 6 -27
15 -12 16 -12 10 4 -4 11 -2 17 8 17 8 0 15 9 15 20 0 12 7 20 16 20 13 0 14
-3 5 -14 -8 -9 -8 -16 -2 -20 5 -4 8 -15 6 -26 -2 -11 3 -24 12 -29 15 -8 15
-10 0 -26 -9 -9 -17 -30 -17 -47 0 -17 -7 -39 -16 -49 -14 -16 -8 -17 93 -17
73 0 97 3 73 8 -19 4 20 5 87 2 84 -3 127 -1 136 6 8 7 17 9 20 5 4 -3 7 -1 7
6 0 7 -7 10 -17 7 -35 -11 -41 6 -40 97 1 48 6 87 10 87 5 0 5 5 2 10 -3 6
-19 10 -34 10 -15 0 -33 6 -39 12 -10 10 -17 10 -32 0 -11 -6 -25 -12 -32 -11
-7 0 -4 5 7 10 15 7 10 8 -22 6 -24 -1 -43 0 -43 4 0 27 -134 25 -169 -2 -14
-11 -32 -17 -45 -14 -11 3 -43 1 -70 -4 -39 -7 -52 -6 -63 5 -8 8 -20 14 -26
14 -15 0 -45 -19 -32 -21 6 0 1 -4 -10 -8 -16 -7 -21 -4 -25 13 -5 18 -13 21
-60 21 -29 0 -59 -5 -65 -11 -8 -8 -17 -9 -29 -2 -11 6 -21 6 -30 -1 -9 -7
-16 -7 -24 1 -8 8 -15 8 -26 -1 -9 -7 -21 -9 -28 -5 -23 14 -50 15 -43 2 4 -7
-2 -3 -13 10 -23 25 -32 28 -32 8 0 -8 7 -16 15 -20 8 -3 15 -11 15 -18 0 -10
-2 -10 -9 1 -5 8 -14 10 -21 6 -8 -5 -11 -4 -7 2 4 6 0 14 -9 17 -24 9 -31 8
-49 -11 -14 -14 -18 -14 -26 -2 -5 8 -9 10 -9 4 0 -5 -9 5 -20 23 -17 28 -24
31 -47 26 -16 -4 -30 -10 -33 -14 -8 -12 -118 -4 -134 9 -14 12 -65 -1 -76
-20 -10 -15 -68 2 -94 28 -16 16 -30 22 -38 16 -7 -4 -28 -13 -47 -18 -19 -6
-36 -17 -38 -25 -4 -12 -3 -12 5 -1 8 11 10 11 15 0 5 -12 7 -12 15 -1 7 11
11 10 17 -5 5 -10 7 -21 7 -25 -1 -5 18 -8 42 -8 24 0 63 -7 87 -15 31 -11 50
-13 69 -6 35 14 80 11 114 -6 15 -8 25 -10 22 -4 -12 19 4 12 31 -14 32 -29
24 -44 -12 -21 -14 9 -25 14 -25 11 0 -4 -13 2 -29 11 -24 14 -33 15 -45 5 -9
-7 -24 -10 -37 -6 -13 5 -19 3 -15 -3 3 -6 -5 -9 -19 -8 -14 0 -25 4 -25 9 0
4 -18 7 -40 7 -22 0 -40 5 -40 11 0 6 -5 7 -13 2 -6 -4 -30 -9 -51 -10 -22 -2
-45 -8 -50 -14 -8 -7 -6 -8 7 -4 22 9 22 -4 -1 -21 -14 -11 -14 -15 -4 -22 25
-16 -14 -22 -149 -22 l-129 0 0 26 c0 26 0 26 -25 10 -14 -9 -30 -14 -35 -11
-5 3 -11 -4 -15 -15 -3 -11 -13 -20 -21 -20 -17 0 -17 5 -3 31 10 19 9 20 -13
8 -13 -7 -26 -12 -30 -11 -4 1 -5 -12 -1 -29 4 -22 2 -29 -8 -27 -11 2 -15
-13 -17 -59 l-3 -63 43 -2 43 -1 -45 -8 c-28 -5 11 -6 102 -4 l148 3 0 -24 c0
-23 -3 -24 -67 -26 -71 -2 -109 -3 -180 -6 l-43 -2 0 -480 0 -480 1244 0 c986
0 1245 3 1249 13 4 10 6 10 6 0 1 -18 167 -18 174 0 4 9 6 9 6 0 1 -10 214
-13 1031 -13 l1030 0 0 316 c0 290 -1 318 -17 330 -17 13 -17 13 0 14 15 0 17
14 17 146 0 128 -2 145 -16 140 -8 -3 -13 -2 -10 3 3 5 -3 11 -14 14 -31 8
-24 27 10 27 46 0 36 24 -15 36 -25 6 -45 8 -45 5 0 -3 -43 -5 -96 -3 -74 3
-101 0 -119 -12 -28 -18 -35 -20 -35 -7 0 24 146 50 250 45 l90 -4 0 121 0
122 -49 -7 c-27 -4 -52 -3 -55 2 -8 13 -124 6 -141 -8 -8 -7 -15 -8 -15 -2 0
6 -38 9 -100 8 -70 -1 -101 2 -104 10 -3 7 -8 45 -12 85 -9 99 -9 97 -18 106
-5 4 -6 -14 -3 -42z m-1823 -135 c-20 -13 -33 -13 -25 0 3 6 14 10 23 10 15 0
15 -2 2 -10z m-446 -9 c4 -5 -3 -7 -14 -4 -23 6 -26 13 -6 13 8 0 17 -4 20 -9z
m-839 -53 c5 -4 -17 -8 -50 -9 -33 0 -70 -2 -83 -3 -38 -4 -35 12 5 33 35 18
41 18 78 3 22 -8 44 -19 50 -24z m580 32 c-3 -5 -11 -10 -16 -10 -6 0 -7 5 -4
10 3 6 11 10 16 10 6 0 7 -4 4 -10z m-275 -15 c17 -20 5 -32 -15 -15 -12 10
-16 9 -21 -4 -5 -13 -22 -16 -88 -16 l-81 1 38 23 c47 29 147 35 167 11z
m1520 6 c0 -5 -7 -11 -14 -14 -10 -4 -13 -1 -9 9 6 15 23 19 23 5z m80 -1 c0
-5 -5 -10 -11 -10 -5 0 -7 5 -4 10 3 6 8 10 11 10 2 0 4 -4 4 -10z m290 -5 c0
-2 -13 -10 -30 -18 -32 -16 -50 -6 -31 17 9 11 61 11 61 1z m-1557 -4 c4 -1 7
-40 7 -88 0 -61 -3 -83 -10 -73 -5 8 -10 32 -10 53 0 28 -4 37 -17 37 -15 0
-14 2 3 16 18 14 18 15 -6 10 -14 -3 -20 -3 -13 0 8 4 9 13 3 28 -7 19 -5 22
13 20 12 -1 25 -3 30 -3z m-520 -8 c-7 -2 -19 -2 -25 0 -7 3 -2 5 12 5 14 0
19 -2 13 -5z m457 -2 c0 -6 -4 -12 -8 -15 -5 -3 -9 1 -9 9 0 8 4 15 9 15 4 0
8 -4 8 -9z m274 -8 l31 -16 -25 -9 c-35 -14 -79 -17 -86 -7 -3 5 2 9 11 9 12
0 13 4 6 18 -8 14 -5 18 11 19 12 1 35 -5 52 -14z m446 7 c0 -5 -2 -10 -4 -10
-3 0 -8 5 -11 10 -3 6 -1 10 4 10 6 0 11 -4 11 -10z m-1475 -10 c3 -5 1 -10
-4 -10 -6 0 -11 5 -11 10 0 6 2 10 4 10 3 0 8 -4 11 -10z m220 0 c3 -5 2 -10
-4 -10 -5 0 -13 5 -16 10 -3 6 -2 10 4 10 5 0 13 -4 16 -10z m632 -12 c-3 -8
-6 -5 -6 6 -1 11 2 17 5 13 3 -3 4 -12 1 -19z m1433 12 c0 -12 -8 -12 -35 0
-18 8 -17 9 8 9 15 1 27 -3 27 -9z m212 0 c2 -5 26 -11 54 -14 29 -2 57 -7 63
-11 7 -4 20 -4 29 -1 15 5 15 5 -1 -8 -16 -13 -72 -9 -117 9 -9 3 -36 -1 -60
-10 -38 -14 -45 -14 -60 0 -9 8 -26 15 -38 15 -12 0 -22 5 -22 10 0 12 60 13
79 1 10 -6 22 -5 35 5 24 17 33 18 38 4z m-2785 -22 c-3 -8 -6 -5 -6 6 -1 11
2 17 5 13 3 -3 4 -12 1 -19z m66 2 c6 -24 1 -25 -19 -6 -18 18 -18 26 0 26 7
0 16 -9 19 -20z m1568 -23 c-9 -9 -10 -5 -7 13 6 36 8 37 13 16 3 -10 0 -23
-6 -29z m1306 37 c-3 -3 -12 -4 -19 -1 -8 3 -5 6 6 6 11 1 17 -2 13 -5z m350
0 c-3 -3 -12 -4 -19 -1 -8 3 -5 6 6 6 11 1 17 -2 13 -5z m-1547 -14 c0 -5 -2
-10 -4 -10 -3 0 -8 5 -11 10 -3 6 -1 10 4 10 6 0 11 -4 11 -10z m85 0 c4 -6
-6 -10 -22 -10 -22 0 -25 2 -13 10 19 12 27 12 35 0z m-2345 -34 c-14 -14 -24
0 -16 21 6 15 8 15 16 3 6 -9 5 -19 0 -24z m742 10 c4 -6 7 -15 7 -21 0 -5 -3
-4 -6 3 -2 6 -12 12 -22 12 -9 0 -26 7 -37 15 -18 15 -17 16 16 9 19 -3 38
-12 42 -18z m231 7 c-7 -2 -21 -2 -30 0 -10 3 -4 5 12 5 17 0 24 -2 18 -5z
m2182 -3 c3 -6 -1 -7 -9 -4 -18 7 -21 14 -7 14 6 0 13 -4 16 -10z m180 0 c3
-5 0 -7 -8 -4 -8 3 -18 1 -22 -5 -3 -6 -18 -11 -33 -10 l-27 1 30 13 c36 17
52 18 60 5z m-2432 -18 c31 1 61 -2 65 -7 4 -4 -26 -5 -65 -3 -42 2 -73 -1
-73 -6 0 -5 -2 -7 -5 -4 -3 3 -2 13 1 22 4 10 10 13 13 8 3 -6 32 -10 64 -10z
m837 8 c0 -5 -7 -7 -15 -4 -8 4 -15 8 -15 10 0 2 7 4 15 4 8 0 15 -4 15 -10z
m-696 -25 c3 -10 -3 -9 -25 2 -35 18 -37 22 -5 16 14 -3 27 -11 30 -18z m29
10 c-3 -9 -8 -14 -10 -11 -3 3 -2 9 2 15 9 16 15 13 8 -4z m143 3 c4 -6 3 -8
-4 -4 -6 3 -36 3 -66 -2 -31 -5 -56 -5 -56 -1 0 4 19 10 43 12 23 2 50 4 59 5
9 1 20 -3 24 -10z m911 -10 c-3 -8 -6 -5 -6 6 -1 11 2 17 5 13 3 -3 4 -12 1
-19z m944 -5 c19 -19 -11 -34 -79 -40 -51 -4 -72 -3 -72 6 0 7 22 12 58 12 31
1 45 4 30 6 -16 2 -28 8 -28 13 0 17 74 20 91 3z m-2941 -9 c0 -8 5 -12 10 -9
6 3 10 1 10 -4 0 -6 -7 -11 -15 -11 -8 0 -15 -4 -15 -10 0 -5 -4 -10 -10 -10
-5 0 -10 7 -10 15 0 8 4 15 10 15 5 0 7 7 4 15 -4 8 -1 15 5 15 6 0 11 -7 11
-16z m2030 12 c0 -3 -4 -8 -10 -11 -5 -3 -10 -1 -10 4 0 6 5 11 10 11 6 0 10
-2 10 -4z m147 -18 c-3 -8 -6 -5 -6 6 -1 11 2 17 5 13 3 -3 4 -12 1 -19z m663
12 c0 -5 -12 -10 -27 -9 l-28 1 25 8 c14 4 26 8 28 9 1 1 2 -3 2 -9z m-1972
-18 c2 -7 -1 -12 -8 -12 -6 0 -9 4 -6 9 4 5 1 12 -4 14 -6 3 -5 4 2 3 6 -1 14
-8 16 -14z m417 8 c-3 -5 -12 -10 -18 -10 -7 0 -6 4 3 10 19 12 23 12 15 0z
m1495 -12 c0 -18 -6 -23 -27 -24 -16 0 -57 -2 -93 -3 -113 -4 -130 -2 -130 15
0 12 7 15 29 12 17 -2 28 -1 25 4 -3 4 0 8 5 8 6 0 11 -4 11 -10 0 -5 21 -10
48 -9 34 0 42 3 27 9 -15 6 -6 9 35 12 30 2 58 5 63 6 4 1 7 -8 7 -20z m-2910
2 c0 -5 -2 -10 -4 -10 -3 0 -8 5 -11 10 -3 6 -1 10 4 10 6 0 11 -4 11 -10z
m294 -2 c-7 -11 -34 -10 -34 1 0 6 9 9 19 8 11 0 17 -5 15 -9z m2351 -28 c-12
-19 -22 -10 -17 16 4 22 6 24 14 10 5 -9 6 -21 3 -26z m-2652 -24 c-3 -4 -9
-2 -14 5 -13 22 -11 31 5 17 8 -7 12 -17 9 -22z m967 30 c0 -2 -7 -6 -15 -10
-8 -3 -15 -1 -15 4 0 6 7 10 15 10 8 0 15 -2 15 -4z m1504 -12 c5 -14 4 -15
-9 -4 -17 14 -19 20 -6 20 5 0 12 -7 15 -16z m-631 -1 c-13 -2 -35 -2 -50 0
-16 2 -5 4 22 4 28 0 40 -2 28 -4z m54 1 c-3 -3 -12 -4 -19 -1 -8 3 -5 6 6 6
11 1 17 -2 13 -5z m1098 -12 c-3 -3 -11 0 -18 7 -9 10 -8 11 6 5 10 -3 15 -9
12 -12z m-1392 1 c-13 -2 -33 -2 -45 0 -13 2 -3 4 22 4 25 0 35 -2 23 -4z
m-1486 -9 c-3 -3 -12 -4 -19 -1 -8 3 -5 6 6 6 11 1 17 -2 13 -5z m456 -11 c-7
-2 -19 -2 -25 0 -7 3 -2 5 12 5 14 0 19 -2 13 -5z m2082 -4 c11 -16 1 -19 -13
-3 -7 8 -8 14 -3 14 5 0 13 -5 16 -11z m-2595 -15 c0 -2 -28 -3 -62 -3 -56 2
-58 3 -23 8 38 6 85 3 85 -5z m153 9 c-7 -2 -19 -2 -25 0 -7 3 -2 5 12 5 14 0
19 -2 13 -5z m100 0 c-13 -2 -33 -2 -45 0 -13 2 -3 4 22 4 25 0 35 -2 23 -4z
m120 0 c-18 -2 -48 -2 -65 0 -18 2 -4 4 32 4 36 0 50 -2 33 -4z m-515 -10
c-10 -2 -26 -2 -35 0 -10 3 -2 5 17 5 19 0 27 -2 18 -5z m185 0 c-7 -2 -19 -2
-25 0 -7 3 -2 5 12 5 14 0 19 -2 13 -5z m412 -3 c-3 -5 -32 -9 -63 -8 l-57 1
55 7 c30 4 59 7 63 8 5 1 5 -2 2 -8z m-158 -7 c-20 -2 -52 -2 -70 0 -17 2 0 4
38 4 39 0 53 -2 32 -4z m1388 -3 c-3 -5 -23 -9 -43 -9 l-37 2 35 7 c52 11 52
11 45 0z m65 6 c0 -11 -19 -15 -25 -6 -3 5 1 10 9 10 9 0 16 -2 16 -4z m448
-6 c-14 -4 -41 -4 -60 0 -28 7 -24 8 27 8 46 0 54 -2 33 -8z m-2130 -7 c-21
-2 -55 -2 -75 0 -21 2 -4 4 37 4 41 0 58 -2 38 -4z m1459 0 c-20 -2 -52 -2
-70 0 -17 2 0 4 38 4 39 0 53 -2 32 -4z m1981 0 c-26 -2 -71 -2 -100 0 -29 2
-8 3 47 3 55 0 79 -1 53 -3z m149 0 c-20 -2 -52 -2 -70 0 -17 2 0 4 38 4 39 0
53 -2 32 -4z m131 0 c-10 -2 -26 -2 -35 0 -10 3 -2 5 17 5 19 0 27 -2 18 -5z
m135 0 c-7 -2 -21 -2 -30 0 -10 3 -4 5 12 5 17 0 24 -2 18 -5z m80 0 c-7 -2
-21 -2 -30 0 -10 3 -4 5 12 5 17 0 24 -2 18 -5z m95 0 c-16 -2 -40 -2 -55 0
-16 2 -3 4 27 4 30 0 43 -2 28 -4z m-3758 -132 c0 -113 3 -123 46 -133 43 -11
49 4 49 123 0 81 3 113 13 116 9 4 12 -25 12 -121 0 -118 -1 -126 -22 -140
-27 -19 -86 -12 -105 12 -16 20 -18 252 -3 252 6 0 10 -43 10 -109z m214 4
l41 -100 3 103 c2 82 6 102 17 102 13 0 15 -24 15 -141 0 -128 -2 -140 -17
-137 -11 2 -32 37 -58 98 -61 143 -60 143 -57 14 3 -77 0 -114 -7 -114 -7 0
-11 46 -11 141 0 176 12 182 74 34z m125 -35 c1 -120 -1 -140 -14 -140 -13 0
-15 21 -15 140 0 114 3 140 14 140 11 0 14 -27 15 -140z m56 113 c18 -85 40
-169 45 -176 4 -4 15 40 25 98 13 77 22 105 32 105 11 0 13 -7 10 -22 -3 -13
-15 -75 -27 -138 -20 -109 -32 -141 -46 -128 -4 5 -73 270 -74 286 0 1 7 2 15
2 8 0 17 -12 20 -27z m295 12 c0 -12 -14 -15 -70 -15 -76 0 -74 2 -64 -62 6
-35 9 -38 39 -38 20 0 35 -6 39 -15 4 -12 -3 -15 -35 -15 l-40 0 3 -52 c3 -46
5 -51 28 -54 73 -10 90 -16 90 -31 0 -12 -7 -14 -32 -9 -18 3 -51 8 -73 12
l-40 6 -3 144 -3 144 81 0 c64 0 80 -3 80 -15z m178 2 c6 -7 14 -77 18 -155 5
-126 4 -142 -10 -142 -13 0 -16 11 -16 54 0 81 -4 86 -64 86 l-51 0 3 -65 c3
-54 1 -65 -12 -65 -14 0 -16 20 -16 150 l0 150 69 0 c44 0 72 -5 79 -13z m198
-4 c16 -22 18 -93 3 -93 -6 0 -9 7 -5 15 3 8 2 15 -3 15 -5 0 -11 9 -14 20 -4
17 -14 20 -56 20 -28 0 -52 -4 -52 -10 -1 -5 -2 -16 -3 -22 -1 -7 -5 -16 -11
-20 -6 -5 -5 -8 3 -8 6 0 12 -6 12 -14 0 -18 22 -26 75 -26 52 0 66 -15 73
-75 3 -31 0 -52 -12 -70 -15 -22 -23 -25 -76 -25 -67 0 -88 17 -86 70 1 37 20
44 24 10 5 -31 29 -49 68 -50 37 0 54 16 54 51 0 41 -24 59 -79 59 -27 0 -53
6 -58 13 -18 23 -16 117 3 138 24 26 121 27 140 2z m79 -143 c0 -146 -2 -160
-17 -160 -16 0 -18 13 -18 129 0 71 -3 143 -6 160 -6 28 -4 31 17 31 l24 0 0
-160z m46 143 c1 -17 2 -17 6 0 4 14 16 17 79 17 67 0 74 -2 74 -20 0 -17 -7
-20 -39 -20 l-39 0 5 -140 c5 -125 4 -140 -11 -140 -14 0 -16 13 -16 88 0 48
-3 110 -6 139 -6 49 -8 52 -38 55 -20 2 -32 9 -34 21 -2 9 1 17 7 17 6 0 12
-8 12 -17z m256 -76 l30 -81 30 84 c20 54 36 84 47 86 9 1 16 -1 16 -4 0 -3
-19 -55 -41 -115 -34 -90 -41 -118 -37 -158 4 -43 3 -49 -13 -49 -16 0 -19 8
-19 53 0 45 -26 136 -75 259 -5 13 -2 15 13 11 14 -3 29 -28 49 -86z m479 72
c20 -20 24 -279 5 -303 -10 -12 -31 -16 -86 -16 -101 0 -106 6 -112 160 -5
140 4 166 59 173 57 7 119 0 134 -14z m264 -10 c0 -21 -3 -22 -89 -15 -49 4
-91 3 -93 -1 -3 -4 -3 -32 0 -60 l4 -53 49 0 c43 0 49 -3 49 -21 0 -19 -5 -21
-50 -17 l-50 3 0 -77 c0 -71 -2 -78 -20 -78 -19 0 -20 7 -20 170 l0 170 110 0
c106 0 110 -1 110 -21z m229 -126 c1 -104 6 -152 14 -161 17 -16 104 -25 128
-12 17 10 19 23 19 165 0 148 1 155 20 155 19 0 20 -7 20 -170 l0 -170 -25
-16 c-37 -24 -160 -12 -192 18 -22 21 -23 28 -23 180 0 149 1 158 19 158 18 0
19 -10 20 -147z m322 53 c24 -52 46 -93 50 -90 4 2 19 39 33 82 32 95 38 105
63 100 19 -3 18 -10 -28 -130 -42 -111 -47 -134 -44 -187 4 -59 3 -61 -20 -61
-24 0 -25 3 -25 64 0 56 -6 76 -55 179 -30 63 -55 120 -55 126 0 6 8 11 19 11
14 0 30 -24 62 -94z m445 69 c24 -16 34 -85 34 -247 0 -93 -1 -98 -25 -114
-21 -14 -42 -16 -109 -12 -82 6 -119 19 -132 48 -4 8 -9 80 -12 160 -5 163 0
175 68 182 58 6 154 -3 176 -17z m709 15 c-3 -5 -14 -10 -23 -10 -15 0 -15 2
-2 10 20 13 33 13 25 0z m232 -30 c1 -11 -4 -20 -10 -20 -7 0 -13 9 -13 20 0
11 5 20 11 20 6 0 11 -9 12 -20z m-42 0 c-3 -5 -14 -10 -23 -9 -14 0 -13 2 3
9 27 11 27 11 20 0z m71 -56 c-22 -16 -56 -19 -56 -5 0 5 10 7 22 3 16 -4 19
-2 13 8 -6 10 -4 12 8 7 10 -4 17 -1 17 5 0 6 3 8 7 4 5 -4 -1 -14 -11 -22z
m-238 -168 c-7 -8 -17 -12 -22 -9 -4 3 -2 9 5 14 22 13 31 11 17 -5z m97 -4
c-3 -3 -11 0 -18 7 -9 10 -8 11 6 5 10 -3 15 -9 12 -12z m-80 -172 c-3 -5 -12
-10 -18 -10 -7 0 -6 4 3 10 19 12 23 12 15 0z"/>
<path d="M1936 1235 c4 -8 15 -15 27 -15 23 0 22 2 -10 19 -19 10 -22 9 -17
-4z"/>
<path d="M1284 966 c-3 -7 -3 -30 -1 -52 l4 -39 54 0 54 0 3 43 c3 46 2 48
-66 56 -30 4 -44 2 -48 -8z"/>
<path d="M2312 954 c-12 -22 -3 -216 11 -230 17 -16 103 -24 116 -11 16 16 14
230 -1 245 -18 18 -115 15 -126 -4z"/>
<path d="M3535 937 c-16 -13 -17 -24 -11 -138 4 -74 12 -129 19 -135 7 -7 39
-15 73 -18 50 -6 65 -3 83 11 21 17 21 23 15 141 -5 86 -12 128 -21 138 -19
18 -132 19 -158 1z"/>
<path d="M1832 1454 c14 -14 112 -44 143 -44 16 0 52 -7 79 -15 56 -17 75 -19
61 -7 -19 17 -131 52 -185 57 -30 4 -66 9 -80 11 -14 3 -22 2 -18 -2z"/>
<path d="M1 1340 l1 -80 41 0 c23 0 69 11 102 25 66 27 90 31 79 13 -5 -8 0
-9 17 -3 13 4 42 9 64 12 65 7 85 13 85 25 0 9 -3 9 -12 0 -18 -18 -28 -14
-25 10 1 17 -4 24 -20 26 -13 2 -23 -1 -23 -7 0 -7 -37 -11 -105 -11 l-105 0
0 35 0 35 -50 0 -50 0 1 -80z m84 20 c3 -6 -1 -7 -9 -4 -18 7 -21 14 -7 14 6
0 13 -4 16 -10z m10 -69 c3 -5 2 -12 -3 -15 -5 -3 -9 1 -9 9 0 17 3 19 12 6z"/>
<path d="M2278 1413 c7 -3 16 -2 19 1 4 3 -2 6 -13 5 -11 0 -14 -3 -6 -6z"/>
<path d="M2135 1380 c-4 -6 6 -10 22 -10 22 0 25 2 13 10 -19 12 -27 12 -35 0z"/>
<path d="M2090 1360 c0 -5 5 -10 11 -10 16 0 -10 -30 -36 -40 -13 -6 -15 -9
-5 -9 8 -1 28 9 43 22 27 22 27 22 7 35 -12 7 -20 8 -20 2z"/>
<path d="M3430 1336 c0 -7 8 -20 17 -27 15 -12 16 -12 10 4 -4 11 -2 17 8 17
8 0 15 5 15 10 0 6 -11 10 -25 10 -15 0 -25 -6 -25 -14z"/>
<path d="M2580 1330 c0 -5 5 -10 11 -10 5 0 7 5 4 10 -3 6 -8 10 -11 10 -2 0
-4 -4 -4 -10z"/>
<path d="M430 1320 c0 -5 5 -10 11 -10 5 0 7 5 4 10 -3 6 -8 10 -11 10 -2 0
-4 -4 -4 -10z"/>
<path d="M2175 1300 c-3 -5 -2 -10 4 -10 5 0 13 5 16 10 3 6 2 10 -4 10 -5 0
-13 -4 -16 -10z"/>
<path d="M2098 1293 c6 -2 18 -2 25 0 6 3 1 5 -13 5 -14 0 -19 -2 -12 -5z"/>
<path d="M2056 1224 c-4 -10 1 -22 11 -30 17 -12 16 -13 -3 -8 -12 3 -24 2
-27 -3 -3 -5 23 -10 58 -11 37 -2 66 1 70 7 3 6 1 11 -4 11 -6 0 -11 7 -11 15
0 24 -37 18 -45 -7 -7 -21 -8 -20 -12 10 -5 34 -26 43 -37 16z"/>
<path d="M2173 1213 c3 -16 8 -39 12 -53 5 -18 4 -21 -3 -11 -8 12 -15 12 -40
2 -17 -7 -40 -10 -52 -6 -19 6 -20 5 -8 -14 19 -30 68 -29 69 2 0 21 1 21 8 2
5 -11 7 -23 4 -27 -2 -5 -1 -8 4 -8 15 0 33 54 33 97 0 33 -4 43 -16 43 -12 0
-15 -7 -11 -27z"/>
<path d="M2040 1145 c0 -8 4 -15 8 -15 5 0 9 7 9 15 0 8 -4 15 -9 15 -4 0 -8
-7 -8 -15z"/>
<path d="M1560 1080 l-35 -8 43 1 c23 0 42 5 42 9 0 9 1 9 -50 -2z"/>
<path d="M1410 1069 c0 -5 5 -7 10 -4 6 3 10 8 10 11 0 2 -4 4 -10 4 -5 0 -10
-5 -10 -11z"/>
<path d="M1458 1073 c12 -2 32 -2 45 0 12 2 2 4 -23 4 -25 0 -35 -2 -22 -4z"/>
<path d="M1190 1063 c0 -5 33 -7 72 -5 125 4 137 9 31 10 -57 1 -103 -1 -103
-5z"/>
</g>
</svg>
